<?xml version="1.0" standalone="no"?>
<!DOCTYPE svg PUBLIC "-//W3C//DTD SVG 20010904//EN"
 "http://www.w3.org/TR/2001/REC-SVG-20010904/DTD/svg10.dtd">
<svg version="1.0" xmlns="http://www.w3.org/2000/svg"
 width="295.000000pt" height="252.000000pt" viewBox="0 0 295.000000 252.000000"
 preserveAspectRatio="xMidYMid meet">

<g transform="translate(0.000000,252.000000) scale(0.100000,-0.100000)"
fill="#000000" stroke="none">
<path d="M638 2424 c-185 -44 -346 -205 -387 -384 -14 -61 -14 -1479 0 -1540
42 -182 203 -341 391 -385 94 -22 1682 -22 1776 0 188 44 349 203 391 385 14
61 14 1479 0 1540 -42 182 -203 341 -391 385 -90 21 -1693 21 -1780 -1z m1771
-19 c181 -43 340 -199 380 -375 14 -62 14 -1458 0 -1520 -40 -176 -199 -332
-380 -375 -96 -22 -1662 -22 -1758 0 -181 43 -340 199 -380 375 -14 62 -14
1458 0 1520 40 174 198 331 375 374 90 22 1671 22 1763 1z"/>
<path d="M1460 2190 l0 -40 -350 0 -350 0 0 -385 0 -385 350 0 350 0 0 -135 0
-135 -340 0 c-370 0 -387 -2 -428 -55 -35 -45 -43 -92 -31 -186 33 -268 195
-496 434 -610 133 -64 186 -74 380 -73 154 1 178 3 258 27 152 47 275 116 381
216 175 166 264 356 291 619 l6 62 -406 0 -405 0 0 135 0 135 348 2 347 3 3
383 2 382 -350 0 -350 0 0 40 0 40 -70 0 -70 0 0 -40z m820 -425 l0 -365 -750
0 -750 0 0 365 0 365 750 0 750 0 0 -365z"/>
</g>
</svg>
